<?xml version="1.0" standalone="no"?>
<!DOCTYPE svg PUBLIC "-//W3C//DTD SVG 20010904//EN"
 "http://www.w3.org/TR/2001/REC-SVG-20010904/DTD/svg10.dtd">
<svg version="1.0" xmlns="http://www.w3.org/2000/svg"
 width="260.000000pt" height="260.000000pt" viewBox="0 0 260.000000 260.000000"
 preserveAspectRatio="xMidYMid meet">
<metadata>
Created by potrace 1.14, written by Peter Selinger 2001-2017
</metadata>
<g transform="translate(0.000000,260.000000) scale(0.100000,-0.100000)"
fill="#000000" stroke="none">
<path d="M0 1300 l0 -1300 1300 0 1300 0 0 1300 0 1300 -1300 0 -1300 0 0
-1300z m770 671 c0 -15 -10 -19 -52 -23 -94 -9 -88 31 -88 -604 0 -665 -18
-598 159 -592 133 4 158 14 227 84 53 55 99 146 121 242 14 60 20 72 38 72 19
0 20 -6 22 -220 l1 -220 -499 0 c-492 0 -499 0 -499 20 0 17 7 20 39 20 59 0
83 25 92 96 10 79 10 910 0 998 -9 81 -30 106 -92 106 -32 0 -39 3 -39 20 0
20 7 20 285 20 272 0 285 -1 285 -19z m1264 4 c141 -30 249 -104 299 -205 18
-37 22 -62 22 -140 0 -84 -3 -103 -29 -157 -52 -113 -173 -202 -316 -232 -30
-7 -106 -15 -167 -18 l-113 -6 0 -193 c0 -106 4 -204 10 -219 13 -33 64 -55
130 -55 43 0 50 -3 50 -20 0 -20 -7 -20 -310 -20 -303 0 -310 0 -310 20 0 17
7 20 39 20 62 0 83 25 92 106 10 89 10 898 0 987 -8 80 -23 97 -85 104 -36 5
-46 9 -46 24 0 18 14 19 333 19 253 0 348 -4 401 -15z"/>
<path d="M1755 1925 l-25 -24 0 -322 0 -322 78 6 c81 5 141 27 174 64 58 64
88 226 70 374 -22 177 -84 249 -215 249 -48 0 -62 -4 -82 -25z"/>
</g>
</svg>
